<mxfile host="app.diagrams.net" modified="2020-12-26T03:21:53.320Z" agent="5.0 (Macintosh; Intel Mac OS X 10_14_4) AppleWebKit/537.36 (KHTML, like Gecko) Chrome/87.0.4280.88 Safari/537.36" etag="tOIC1qHoqUaobyrt1OjJ" version="14.0.1" type="github">
  <diagram id="fDtv-NP8o_LM4w9Mx3LK" name="Page-1">
    <mxGraphModel dx="1410" dy="714" grid="1" gridSize="10" guides="1" tooltips="1" connect="1" arrows="1" fold="1" page="1" pageScale="1" pageWidth="827" pageHeight="1169" math="0" shadow="0">
      <root>
        <mxCell id="0" />
        <mxCell id="1" parent="0" />
        <mxCell id="BwLVxdTWhbgkWEdLYuY5-10" style="edgeStyle=orthogonalEdgeStyle;rounded=0;orthogonalLoop=1;jettySize=auto;html=1;exitX=0.5;exitY=0;exitDx=0;exitDy=0;exitPerimeter=0;entryX=0.1;entryY=1;entryDx=0;entryDy=0;entryPerimeter=0;" edge="1" parent="1" source="BwLVxdTWhbgkWEdLYuY5-3" target="BwLVxdTWhbgkWEdLYuY5-5">
          <mxGeometry relative="1" as="geometry" />
        </mxCell>
        <mxCell id="BwLVxdTWhbgkWEdLYuY5-3" value="亿嘉和服务器" style="fontColor=#0066CC;verticalAlign=top;verticalLabelPosition=bottom;labelPosition=center;align=center;html=1;outlineConnect=0;fillColor=#CCCCCC;strokeColor=#6881B3;gradientColor=none;gradientDirection=north;strokeWidth=2;shape=mxgraph.networks.web_server;" vertex="1" parent="1">
          <mxGeometry x="165" y="750" width="105" height="105" as="geometry" />
        </mxCell>
        <mxCell id="BwLVxdTWhbgkWEdLYuY5-11" style="edgeStyle=orthogonalEdgeStyle;rounded=0;orthogonalLoop=1;jettySize=auto;html=1;exitX=0.5;exitY=0;exitDx=0;exitDy=0;exitPerimeter=0;" edge="1" parent="1" source="BwLVxdTWhbgkWEdLYuY5-4" target="BwLVxdTWhbgkWEdLYuY5-6">
          <mxGeometry relative="1" as="geometry" />
        </mxCell>
        <mxCell id="BwLVxdTWhbgkWEdLYuY5-4" value="国自服务器" style="fontColor=#0066CC;verticalAlign=top;verticalLabelPosition=bottom;labelPosition=center;align=center;html=1;outlineConnect=0;fillColor=#CCCCCC;strokeColor=#6881B3;gradientColor=none;gradientDirection=north;strokeWidth=2;shape=mxgraph.networks.web_server;" vertex="1" parent="1">
          <mxGeometry x="507.5" y="750" width="105" height="105" as="geometry" />
        </mxCell>
        <mxCell id="BwLVxdTWhbgkWEdLYuY5-25" style="edgeStyle=orthogonalEdgeStyle;rounded=0;orthogonalLoop=1;jettySize=auto;html=1;exitX=0.05;exitY=0.05;exitDx=0;exitDy=0;exitPerimeter=0;" edge="1" parent="1" source="BwLVxdTWhbgkWEdLYuY5-5" target="BwLVxdTWhbgkWEdLYuY5-24">
          <mxGeometry relative="1" as="geometry" />
        </mxCell>
        <mxCell id="BwLVxdTWhbgkWEdLYuY5-5" value="三层交换机" style="fontColor=#0066CC;verticalAlign=top;verticalLabelPosition=bottom;labelPosition=center;align=center;html=1;outlineConnect=0;fillColor=#CCCCCC;strokeColor=#6881B3;gradientColor=none;gradientDirection=north;strokeWidth=2;shape=mxgraph.networks.router;" vertex="1" parent="1">
          <mxGeometry x="350" y="470" width="100" height="30" as="geometry" />
        </mxCell>
        <mxCell id="BwLVxdTWhbgkWEdLYuY5-8" style="edgeStyle=orthogonalEdgeStyle;rounded=0;orthogonalLoop=1;jettySize=auto;html=1;exitX=0.5;exitY=0;exitDx=0;exitDy=0;exitPerimeter=0;entryX=0.9;entryY=1;entryDx=0;entryDy=0;entryPerimeter=0;" edge="1" parent="1" source="BwLVxdTWhbgkWEdLYuY5-6" target="BwLVxdTWhbgkWEdLYuY5-5">
          <mxGeometry relative="1" as="geometry" />
        </mxCell>
        <mxCell id="BwLVxdTWhbgkWEdLYuY5-6" value="普通交换机" style="fontColor=#0066CC;verticalAlign=top;verticalLabelPosition=bottom;labelPosition=center;align=center;html=1;outlineConnect=0;fillColor=#CCCCCC;strokeColor=#6881B3;gradientColor=none;gradientDirection=north;strokeWidth=2;shape=mxgraph.networks.router;" vertex="1" parent="1">
          <mxGeometry x="510" y="620" width="100" height="30" as="geometry" />
        </mxCell>
        <mxCell id="BwLVxdTWhbgkWEdLYuY5-22" value="厂网" style="html=1;outlineConnect=0;fillColor=#CCCCCC;strokeColor=#6881B3;gradientColor=none;gradientDirection=north;strokeWidth=2;shape=mxgraph.networks.bus;gradientColor=none;gradientDirection=north;fontColor=#ffffff;perimeter=backbonePerimeter;backboneSize=20;" vertex="1" parent="1">
          <mxGeometry x="110" y="220" width="590" height="20" as="geometry" />
        </mxCell>
        <mxCell id="BwLVxdTWhbgkWEdLYuY5-26" style="edgeStyle=orthogonalEdgeStyle;rounded=0;orthogonalLoop=1;jettySize=auto;html=1;exitX=0.5;exitY=0;exitDx=0;exitDy=0;exitPerimeter=0;" edge="1" parent="1" source="BwLVxdTWhbgkWEdLYuY5-24" target="BwLVxdTWhbgkWEdLYuY5-22">
          <mxGeometry relative="1" as="geometry" />
        </mxCell>
        <mxCell id="BwLVxdTWhbgkWEdLYuY5-24" value="网闸" style="fontColor=#0066CC;verticalAlign=top;verticalLabelPosition=bottom;labelPosition=center;align=center;html=1;outlineConnect=0;fillColor=#CCCCCC;strokeColor=#6881B3;gradientColor=none;gradientDirection=north;strokeWidth=2;shape=mxgraph.networks.hub;" vertex="1" parent="1">
          <mxGeometry x="170" y="350" width="100" height="30" as="geometry" />
        </mxCell>
        <mxCell id="BwLVxdTWhbgkWEdLYuY5-28" style="edgeStyle=orthogonalEdgeStyle;rounded=0;orthogonalLoop=1;jettySize=auto;html=1;exitX=0.5;exitY=0;exitDx=0;exitDy=0;exitPerimeter=0;" edge="1" parent="1" source="BwLVxdTWhbgkWEdLYuY5-27">
          <mxGeometry relative="1" as="geometry">
            <mxPoint x="504" y="240" as="targetPoint" />
            <Array as="points">
              <mxPoint x="588" y="290" />
              <mxPoint x="504" y="290" />
            </Array>
          </mxGeometry>
        </mxCell>
        <mxCell id="BwLVxdTWhbgkWEdLYuY5-27" value="三维服务器" style="fontColor=#0066CC;verticalAlign=top;verticalLabelPosition=bottom;labelPosition=center;align=center;html=1;outlineConnect=0;fillColor=#CCCCCC;strokeColor=#6881B3;gradientColor=none;gradientDirection=north;strokeWidth=2;shape=mxgraph.networks.web_server;" vertex="1" parent="1">
          <mxGeometry x="535" y="330" width="105" height="105" as="geometry" />
        </mxCell>
        <mxCell id="BwLVxdTWhbgkWEdLYuY5-31" style="edgeStyle=orthogonalEdgeStyle;rounded=0;orthogonalLoop=1;jettySize=auto;html=1;exitX=0.5;exitY=1;exitDx=0;exitDy=0;exitPerimeter=0;entryX=0.315;entryY=0;entryDx=0;entryDy=0;entryPerimeter=0;" edge="1" parent="1" source="BwLVxdTWhbgkWEdLYuY5-30" target="BwLVxdTWhbgkWEdLYuY5-22">
          <mxGeometry relative="1" as="geometry" />
        </mxCell>
        <mxCell id="BwLVxdTWhbgkWEdLYuY5-30" value="PC端" style="fontColor=#0066CC;verticalAlign=top;verticalLabelPosition=bottom;labelPosition=center;align=center;html=1;outlineConnect=0;fillColor=#CCCCCC;strokeColor=#6881B3;gradientColor=none;gradientDirection=north;strokeWidth=2;shape=mxgraph.networks.pc;" vertex="1" parent="1">
          <mxGeometry x="150" y="30" width="100" height="70" as="geometry" />
        </mxCell>
        <mxCell id="BwLVxdTWhbgkWEdLYuY5-33" style="edgeStyle=orthogonalEdgeStyle;rounded=0;orthogonalLoop=1;jettySize=auto;html=1;exitX=0.5;exitY=1;exitDx=0;exitDy=0;exitPerimeter=0;" edge="1" parent="1" source="BwLVxdTWhbgkWEdLYuY5-32" target="BwLVxdTWhbgkWEdLYuY5-22">
          <mxGeometry relative="1" as="geometry" />
        </mxCell>
        <mxCell id="BwLVxdTWhbgkWEdLYuY5-32" value="大屏" style="fontColor=#0066CC;verticalAlign=top;verticalLabelPosition=bottom;labelPosition=center;align=center;html=1;outlineConnect=0;fillColor=#CCCCCC;strokeColor=#6881B3;gradientColor=none;gradientDirection=north;strokeWidth=2;shape=mxgraph.networks.terminal;" vertex="1" parent="1">
          <mxGeometry x="365" y="30" width="80" height="65" as="geometry" />
        </mxCell>
        <mxCell id="BwLVxdTWhbgkWEdLYuY5-35" style="edgeStyle=orthogonalEdgeStyle;rounded=0;orthogonalLoop=1;jettySize=auto;html=1;exitX=0.5;exitY=1;exitDx=0;exitDy=0;exitPerimeter=0;" edge="1" parent="1" source="BwLVxdTWhbgkWEdLYuY5-34" target="BwLVxdTWhbgkWEdLYuY5-22">
          <mxGeometry relative="1" as="geometry">
            <mxPoint x="590" y="210" as="targetPoint" />
            <Array as="points">
              <mxPoint x="610" y="160" />
              <mxPoint x="520" y="160" />
            </Array>
          </mxGeometry>
        </mxCell>
        <mxCell id="BwLVxdTWhbgkWEdLYuY5-34" value="Pad" style="fontColor=#0066CC;verticalAlign=top;verticalLabelPosition=bottom;labelPosition=center;align=center;html=1;outlineConnect=0;fillColor=#CCCCCC;strokeColor=#6881B3;gradientColor=none;gradientDirection=north;strokeWidth=2;shape=mxgraph.networks.tablet;" vertex="1" parent="1">
          <mxGeometry x="560" y="30" width="100" height="70" as="geometry" />
        </mxCell>
      </root>
    </mxGraphModel>
  </diagram>
</mxfile>
